G04 Generated by Ultiboard 14.0 *
%FSLAX34Y34*%
%MOMM*%

%ADD10C,0.0001*%
%ADD11C,0.2032*%
%ADD12C,0.1552*%
%ADD13C,0.2001*%
%ADD14C,0.1000*%
%ADD15C,0.1176*%
%ADD16C,0.1270*%


G04 ColorRGB FFFF00 for the following layer *
%LNSilkScreenTop*%
%LPD*%
G54D10*
G54D11*
X264273Y54048D02*
X261451Y55559D01*
X258628Y55559D01*
X255806Y54048D01*
X255806Y48000D01*
X251573Y49512D02*
X248751Y48000D01*
X245928Y48000D01*
X243106Y49512D01*
X243106Y50268D01*
X251573Y55559D01*
X243106Y55559D01*
X243106Y54804D01*
X263144Y16764D02*
X263144Y42164D01*
X186944Y16764D02*
X186944Y42164D01*
X186944Y16764D02*
X237744Y16764D01*
X244094Y16764D02*
X263144Y16764D01*
X239861Y16764D02*
X239861Y25231D01*
X241977Y18881D02*
X239861Y16764D01*
X186944Y42164D02*
X263144Y42164D01*
X205740Y385556D02*
X205730Y284322D01*
X240030Y385556D02*
X240030Y284122D01*
X193780Y284222D02*
X193796Y385556D01*
X207010Y283988D02*
X240030Y283988D01*
X193796Y283988D02*
X207766Y283988D01*
X193796Y385556D02*
X207766Y385556D01*
X205740Y547608D02*
X205730Y446374D01*
X240030Y547608D02*
X240030Y446174D01*
X193780Y446274D02*
X193796Y547608D01*
X207010Y446040D02*
X240030Y446040D01*
X193796Y446040D02*
X207766Y446040D01*
X193796Y547608D02*
X207766Y547608D01*
X205740Y709660D02*
X205730Y608426D01*
X240030Y709660D02*
X240030Y608226D01*
X193780Y608326D02*
X193796Y709660D01*
X207010Y608092D02*
X240030Y608092D01*
X193796Y608092D02*
X207766Y608092D01*
X193796Y709660D02*
X207766Y709660D01*
X205740Y871712D02*
X205730Y770478D01*
X240030Y871712D02*
X240030Y770278D01*
X193780Y770378D02*
X193796Y871712D01*
X207010Y770144D02*
X240030Y770144D01*
X193796Y770144D02*
X207766Y770144D01*
X193796Y871712D02*
X207766Y871712D01*
X133491Y935536D02*
X136313Y934025D01*
X139136Y934025D01*
X141958Y935536D01*
X141958Y941584D01*
X147602Y940072D02*
X150424Y941584D01*
X150424Y934025D01*
X146191Y934025D02*
X154658Y934025D01*
X312420Y944880D02*
X134620Y944880D01*
X312420Y970280D02*
X263737Y970280D01*
X153670Y970280D02*
X134620Y970280D01*
X134620Y944880D01*
X255270Y970280D02*
X160020Y970280D01*
X157903Y970280D02*
X157903Y961813D01*
X155787Y968163D02*
X157903Y970280D01*
X259503Y961813D02*
X259687Y961821D01*
X259871Y961845D01*
X260051Y961885D01*
X260227Y961941D01*
X260398Y962012D01*
X260561Y962097D01*
X260717Y962196D01*
X260864Y962309D01*
X261000Y962433D01*
X261124Y962569D01*
X261237Y962716D01*
X261336Y962872D01*
X261421Y963035D01*
X261492Y963206D01*
X261548Y963382D01*
X261588Y963562D01*
X261612Y963746D01*
X261620Y963930D01*
X261612Y964114D01*
X261588Y964298D01*
X261548Y964478D01*
X261492Y964654D01*
X261421Y964825D01*
X261336Y964988D01*
X261237Y965144D01*
X261124Y965291D01*
X261000Y965427D01*
X260864Y965551D01*
X260717Y965664D01*
X260561Y965763D01*
X260398Y965848D01*
X260227Y965919D01*
X260051Y965975D01*
X259871Y966015D01*
X259687Y966039D01*
X259503Y966047D01*
X257387Y961813D02*
X259503Y961813D01*
X257387Y966047D02*
X259503Y966047D01*
X257387Y970280D02*
X261620Y970280D01*
X257387Y966047D02*
X257387Y970280D01*
X312420Y970280D02*
X312420Y944880D01*
X237248Y159120D02*
X227248Y159120D01*
X227248Y163102D01*
X229248Y165093D01*
X230248Y165093D01*
X232248Y163102D01*
X232248Y159120D01*
X232248Y160115D02*
X237248Y165093D01*
X233248Y174053D02*
X233248Y168080D01*
X227248Y173057D01*
X237248Y173057D01*
X237248Y172062D02*
X237248Y174053D01*
X296176Y159120D02*
X286176Y159120D01*
X286176Y163102D01*
X288176Y165093D01*
X289176Y165093D01*
X291176Y163102D01*
X291176Y159120D01*
X291176Y160115D02*
X296176Y165093D01*
X287176Y169075D02*
X286176Y170071D01*
X286176Y172062D01*
X288176Y174053D01*
X290176Y174053D01*
X291176Y173057D01*
X292176Y174053D01*
X294176Y174053D01*
X296176Y172062D01*
X296176Y170071D01*
X295176Y169075D01*
X291176Y170071D02*
X291176Y173057D01*
X355104Y159120D02*
X345104Y159120D01*
X345104Y163102D01*
X347104Y165093D01*
X348104Y165093D01*
X350104Y163102D01*
X350104Y159120D01*
X350104Y160115D02*
X355104Y165093D01*
X347104Y168080D02*
X345104Y170071D01*
X345104Y172062D01*
X347104Y174053D01*
X348104Y174053D01*
X355104Y168080D01*
X355104Y174053D01*
X354104Y174053D01*
X414032Y159120D02*
X404032Y159120D01*
X404032Y163102D01*
X406032Y165093D01*
X407032Y165093D01*
X409032Y163102D01*
X409032Y159120D01*
X409032Y160115D02*
X414032Y165093D01*
X406032Y169075D02*
X404032Y171066D01*
X414032Y171066D01*
X414032Y168080D02*
X414032Y174053D01*
X60931Y144274D02*
X62706Y143250D01*
X64564Y142385D01*
X66490Y141686D01*
X68470Y141157D01*
X70488Y140802D01*
X72530Y140625D01*
X74579Y140627D01*
X76620Y140807D01*
X78638Y141164D01*
X80617Y141696D01*
X82542Y142398D01*
X84399Y143265D01*
X86173Y144291D01*
X87851Y145467D01*
X89420Y146786D01*
X90868Y148236D01*
X92184Y149806D01*
X93358Y151486D01*
X94381Y153261D01*
X95246Y155119D01*
X95946Y157045D01*
X96475Y159025D01*
X96829Y161043D01*
X97006Y163085D01*
X97005Y165134D01*
X96825Y167175D01*
X96468Y169193D01*
X95936Y171172D01*
X95234Y173097D01*
X94367Y174954D01*
X93341Y176728D01*
X92164Y178405D01*
X90846Y179974D01*
X89396Y181422D01*
X87825Y182738D01*
X86146Y183913D01*
X84370Y184936D01*
X82513Y185801D01*
X80587Y186500D01*
X78607Y187029D01*
X76589Y187384D01*
X74547Y187561D01*
X72498Y187560D01*
X70457Y187380D01*
X68439Y187022D01*
X66460Y186491D01*
X64535Y185788D01*
X62678Y184921D01*
X60931Y183913D01*
X60960Y144543D02*
X60960Y183651D01*
X119859Y144274D02*
X121634Y143250D01*
X123492Y142385D01*
X125418Y141686D01*
X127398Y141157D01*
X129416Y140802D01*
X131458Y140625D01*
X133507Y140627D01*
X135548Y140807D01*
X137566Y141164D01*
X139545Y141696D01*
X141470Y142398D01*
X143327Y143265D01*
X145101Y144291D01*
X146779Y145467D01*
X148348Y146786D01*
X149796Y148236D01*
X151112Y149806D01*
X152286Y151486D01*
X153309Y153261D01*
X154174Y155119D01*
X154874Y157045D01*
X155403Y159025D01*
X155757Y161043D01*
X155934Y163085D01*
X155933Y165134D01*
X155753Y167175D01*
X155396Y169193D01*
X154864Y171172D01*
X154162Y173097D01*
X153295Y174954D01*
X152269Y176728D01*
X151092Y178405D01*
X149774Y179974D01*
X148324Y181422D01*
X146753Y182738D01*
X145074Y183913D01*
X143298Y184936D01*
X141441Y185801D01*
X139515Y186500D01*
X137535Y187029D01*
X135517Y187384D01*
X133475Y187561D01*
X131426Y187560D01*
X129385Y187380D01*
X127367Y187022D01*
X125388Y186491D01*
X123463Y185788D01*
X121606Y184921D01*
X119859Y183913D01*
X119888Y144543D02*
X119888Y183651D01*
G54D12*
X255111Y327765D02*
X257106Y329752D01*
X257106Y331739D01*
X255111Y333726D01*
X249124Y333726D01*
X247128Y331739D01*
X247128Y329752D01*
X249124Y327765D01*
X255111Y327765D01*
X255111Y331739D02*
X257106Y333726D01*
X249124Y337700D02*
X247128Y339686D01*
X257106Y339686D01*
X257106Y336706D02*
X257106Y342667D01*
X255111Y489817D02*
X257106Y491804D01*
X257106Y493791D01*
X255111Y495778D01*
X249124Y495778D01*
X247128Y493791D01*
X247128Y491804D01*
X249124Y489817D01*
X255111Y489817D01*
X255111Y493791D02*
X257106Y495778D01*
X249124Y498758D02*
X247128Y500745D01*
X247128Y502732D01*
X249124Y504719D01*
X250121Y504719D01*
X257106Y498758D01*
X257106Y504719D01*
X256109Y504719D01*
X255111Y651869D02*
X257106Y653856D01*
X257106Y655843D01*
X255111Y657830D01*
X249124Y657830D01*
X247128Y655843D01*
X247128Y653856D01*
X249124Y651869D01*
X255111Y651869D01*
X255111Y655843D02*
X257106Y657830D01*
X247128Y666771D02*
X247128Y660810D01*
X251119Y660810D01*
X251119Y664784D01*
X253115Y666771D01*
X255111Y666771D01*
X257106Y664784D01*
X257106Y660810D01*
X255111Y813921D02*
X257106Y815908D01*
X257106Y817895D01*
X255111Y819882D01*
X249124Y819882D01*
X247128Y817895D01*
X247128Y815908D01*
X249124Y813921D01*
X255111Y813921D01*
X255111Y817895D02*
X257106Y819882D01*
X247128Y827829D02*
X247128Y824849D01*
X249124Y822862D01*
X253115Y822862D01*
X255111Y822862D01*
X257106Y824849D01*
X257106Y826836D01*
X255111Y828823D01*
X253115Y828823D01*
X251119Y826836D01*
X251119Y824849D01*
X253115Y822862D01*
G54D13*
X239930Y385572D02*
X206080Y385572D01*
X239930Y547624D02*
X206080Y547624D01*
X239930Y709676D02*
X206080Y709676D01*
X239930Y871728D02*
X206080Y871728D01*
G54D14*
X193348Y133124D02*
X218848Y133124D01*
X218848Y203124D01*
X193348Y203124D01*
X193348Y133124D01*
X206248Y117124D02*
X206248Y133124D01*
X206248Y203124D02*
X206248Y220124D01*
X252276Y133124D02*
X277776Y133124D01*
X277776Y203124D01*
X252276Y203124D01*
X252276Y133124D01*
X265176Y117124D02*
X265176Y133124D01*
X265176Y203124D02*
X265176Y220124D01*
X311204Y133124D02*
X336704Y133124D01*
X336704Y203124D01*
X311204Y203124D01*
X311204Y133124D01*
X324104Y117124D02*
X324104Y133124D01*
X324104Y203124D02*
X324104Y220124D01*
X370132Y133124D02*
X395632Y133124D01*
X395632Y203124D01*
X370132Y203124D01*
X370132Y133124D01*
X383032Y117124D02*
X383032Y133124D01*
X383032Y203124D02*
X383032Y220124D01*
G54D15*
X71684Y128522D02*
X73189Y127010D01*
X74694Y127010D01*
X76199Y128522D01*
X76199Y133057D01*
X74694Y134569D01*
X73189Y134569D01*
X71684Y133057D01*
X71684Y128522D01*
X74694Y128522D02*
X76199Y127010D01*
X82973Y130033D02*
X78457Y130033D01*
X82220Y134569D01*
X82220Y127010D01*
X81467Y127010D02*
X82973Y127010D01*
X130612Y128522D02*
X132117Y127010D01*
X133622Y127010D01*
X135127Y128522D01*
X135127Y133057D01*
X133622Y134569D01*
X132117Y134569D01*
X130612Y133057D01*
X130612Y128522D01*
X133622Y128522D02*
X135127Y127010D01*
X138138Y133813D02*
X138890Y134569D01*
X140395Y134569D01*
X141901Y133057D01*
X141901Y131545D01*
X141148Y130789D01*
X141901Y130033D01*
X141901Y128522D01*
X140395Y127010D01*
X138890Y127010D01*
X138138Y127766D01*
X138890Y130789D02*
X141148Y130789D01*
G54D16*
X-2540Y-2540D02*
X-2540Y97968D01*
X-2540Y-2540D02*
X42968Y-2540D01*
X452540Y-2540D02*
X407032Y-2540D01*
X452540Y-2540D02*
X452540Y97968D01*
X452540Y1002540D02*
X452540Y902032D01*
X452540Y1002540D02*
X407032Y1002540D01*
X-2540Y1002540D02*
X42968Y1002540D01*
X-2540Y1002540D02*
X-2540Y902032D01*
X-52540Y-2540D02*
X-152540Y-2540D01*
X-102540Y-52540D02*
X-102540Y47460D01*
X-140040Y-2540D02*
G75*
D01*
G02X-140040Y-2540I37500J0*
G01*
X502540Y-2540D02*
X602540Y-2540D01*
X552540Y-52540D02*
X552540Y47460D01*
X515040Y-2540D02*
G75*
D01*
G02X515040Y-2540I37500J0*
G01*
X540040Y-2540D02*
G75*
D01*
G02X540040Y-2540I12500J0*
G01*
X-52540Y1002540D02*
X-152540Y1002540D01*
X-102540Y952540D02*
X-102540Y1052540D01*
X-140040Y1002540D02*
G75*
D01*
G02X-140040Y1002540I37500J0*
G01*
X-127540Y1002540D02*
G75*
D01*
G02X-127540Y1002540I25000J0*
G01*
X-115040Y1002540D02*
G75*
D01*
G02X-115040Y1002540I12500J0*
G01*

M02*
