G04 Generated by Ultiboard 14.0 *
%FSLAX34Y34*%
%MOMM*%

%ADD10C,0.0001*%
%ADD11C,0.1270*%


G04 ColorRGB FF14FF for the following layer *
%LNSilkScreenBottom*%
%LPD*%
G54D10*
G54D11*
X-2540Y-2540D02*
X-2540Y97968D01*
X-2540Y-2540D02*
X42968Y-2540D01*
X452540Y-2540D02*
X407032Y-2540D01*
X452540Y-2540D02*
X452540Y97968D01*
X452540Y1002540D02*
X452540Y902032D01*
X452540Y1002540D02*
X407032Y1002540D01*
X-2540Y1002540D02*
X42968Y1002540D01*
X-2540Y1002540D02*
X-2540Y902032D01*
X-52540Y-2540D02*
X-152540Y-2540D01*
X-102540Y-52540D02*
X-102540Y47460D01*
X-140040Y-2540D02*
G75*
D01*
G02X-140040Y-2540I37500J0*
G01*
X502540Y-2540D02*
X602540Y-2540D01*
X552540Y-52540D02*
X552540Y47460D01*
X515040Y-2540D02*
G75*
D01*
G02X515040Y-2540I37500J0*
G01*
X540040Y-2540D02*
G75*
D01*
G02X540040Y-2540I12500J0*
G01*
X-52540Y1002540D02*
X-152540Y1002540D01*
X-102540Y952540D02*
X-102540Y1052540D01*
X-140040Y1002540D02*
G75*
D01*
G02X-140040Y1002540I37500J0*
G01*
X-127540Y1002540D02*
G75*
D01*
G02X-127540Y1002540I25000J0*
G01*
X-115040Y1002540D02*
G75*
D01*
G02X-115040Y1002540I12500J0*
G01*

M02*
