G04 Generated by Ultiboard 14.0 *
%FSLAX34Y34*%
%MOMM*%

%ADD10C,0.0001*%
%ADD11C,0.2540*%
%ADD12C,1.0000*%
%ADD13C,3.0000*%
%ADD14C,4.0000*%
%ADD15C,0.1270*%
%ADD16C,3.0000*%
%ADD17R,1.0051X1.0051*%
%ADD18C,0.9949*%
%ADD19C,2.0000*%
%ADD20R,3.0000X3.0000*%
%ADD21R,2.5051X2.5051*%
%ADD22C,3.5000*%
%ADD23C,4.0000*%


G04 ColorRGB 0000FF for the following layer *
%LNCopper Bottom*%
%LPD*%
G54D10*
G36*
X706666Y34926D02*
G75*
D01*
G03X644412Y-24772I-33568J-27303*
G01*
X644412Y-24772D01*
X76335Y-24772D01*
G75*
D01*
G03X13334Y31807I-25538J34929*
G01*
X13334Y31807D01*
X13334Y928791D01*
G75*
D01*
G03X75791Y988559I29857J31317*
G01*
X75791Y988559D01*
X643029Y988559D01*
G75*
D01*
G03X706666Y929959I32591J-28461*
G01*
X706666Y929959D01*
X706666Y34926D01*
D02*
G37*
%LPC*%
G36*
X595357Y236769D02*
G75*
D01*
G03X605510Y238638I19J28407*
G01*
G74*
D01*
G03X615477Y245104I10135J26537*
G01*
X615477Y245104D01*
X638816Y268443D01*
G75*
D01*
G03X647151Y288544I-20071J20101*
G01*
X647151Y288544D01*
X647151Y308744D01*
G75*
D01*
G03X590337Y308744I-28407J0*
G01*
X590337Y308744D01*
X590337Y300310D01*
X583610Y293583D01*
X548722Y293583D01*
X524667Y317638D01*
X524667Y477388D01*
X563120Y515841D01*
G75*
D01*
G03X572927Y539496I-23624J23655*
G01*
X572927Y539496D01*
X572927Y649407D01*
G75*
D01*
G03X574280Y649338I1355J13264*
G01*
X574280Y649338D01*
X604280Y649338D01*
G75*
D01*
G03X617614Y662672I0J13334*
G01*
X617614Y662672D01*
X617614Y692672D01*
G74*
D01*
G03X604280Y706006I13334J0*
G01*
X604280Y706006D01*
X574280Y706006D01*
G75*
D01*
G03X572927Y705937I2J-13334*
G01*
X572927Y705937D01*
X572927Y829056D01*
G74*
D01*
G03X563120Y852711I33431J0*
G01*
X563120Y852711D01*
X554131Y861700D01*
X554131Y942848D01*
G75*
D01*
G03X495300Y964584I-33431J0*
G01*
G75*
D01*
G03X436469Y942848I-25401J-21734*
G01*
X436469Y942848D01*
X436469Y825018D01*
G75*
D01*
G03X446261Y801353I33431J-25*
G01*
X446261Y801353D01*
X457670Y789943D01*
X443402Y775675D01*
X441960Y775675D01*
G75*
D01*
G03X421201Y727877I0J-28407*
G01*
G75*
D01*
G03X457805Y684953I19737J-20238*
G01*
X457805Y684953D01*
X457805Y604564D01*
G75*
D01*
G03X439049Y609272I-15845J-23411*
G01*
G74*
D01*
G03X422656Y613567I16393J29136*
G01*
X422656Y613567D01*
X387096Y613567D01*
G75*
D01*
G03X387096Y546705I0J-33431*
G01*
X387096Y546705D01*
X414268Y546705D01*
G75*
D01*
G03X421467Y521546I27691J-5686*
G01*
G74*
D01*
G03X422486Y520364I22016J17950*
G01*
G75*
D01*
G03X457805Y476460I19468J-20497*
G01*
X457805Y476460D01*
X457805Y376058D01*
X444926Y363179D01*
X441960Y363179D01*
G75*
D01*
G03X415295Y344565I1J-28407*
G01*
G74*
D01*
G03X405640Y365031I33279J3189*
G01*
X405640Y365031D01*
X342111Y428559D01*
X324007Y446664D01*
X324007Y721228D01*
X391924Y789145D01*
G75*
D01*
G03X401731Y812800I-23624J23655*
G01*
X401731Y812800D01*
X401731Y942848D01*
G74*
D01*
G03X399155Y955716I33431J1*
G01*
G74*
D01*
G03X381168Y973703I18330J343*
G01*
G75*
D01*
G03X355432Y973703I-12868J-30854*
G01*
G74*
D01*
G03X337445Y955716I343J18330*
G01*
G74*
D01*
G03X334869Y942848I30854J12868*
G01*
X334869Y942848D01*
X334869Y826648D01*
X266937Y758715D01*
G75*
D01*
G03X257145Y735048I23638J-23639*
G01*
X257145Y735048D01*
X257145Y601228D01*
G74*
D01*
G03X250712Y602882I6432J11680*
G01*
X250712Y602882D01*
X220712Y602882D01*
G75*
D01*
G03X207378Y589548I0J-13334*
G01*
X207378Y589548D01*
X207378Y559548D01*
G75*
D01*
G03X220712Y546214I13334J0*
G01*
X220712Y546214D01*
X250712Y546214D01*
G74*
D01*
G03X257145Y547868I1J13334*
G01*
X257145Y547868D01*
X257145Y485982D01*
G75*
D01*
G03X257145Y449114I-21432J-18434*
G01*
X257145Y449114D01*
X257145Y432838D01*
G75*
D01*
G03X266937Y409177I33431J-21*
G01*
X266937Y409177D01*
X348585Y327528D01*
X348585Y251598D01*
X331569Y234582D01*
X323836Y234582D01*
G75*
D01*
G03X310502Y221248I0J-13334*
G01*
X310502Y221248D01*
X310502Y208277D01*
G75*
D01*
G03X310502Y204219I28333J-2029*
G01*
X310502Y204219D01*
X310502Y191248D01*
G75*
D01*
G03X323836Y177914I13334J0*
G01*
X323836Y177914D01*
X336807Y177914D01*
G75*
D01*
G03X338836Y177841I2035J28333*
G01*
X338836Y177841D01*
X361112Y177841D01*
X383023Y155931D01*
X367112Y155931D01*
G75*
D01*
G03X360690Y155195I2J-28407*
G01*
G74*
D01*
G03X347025Y147611I6420J27671*
G01*
X347025Y147611D01*
X318749Y119335D01*
G75*
D01*
G03X312771Y87954I20087J-20086*
G01*
X312771Y87954D01*
X168640Y87954D01*
X128594Y128000D01*
X128594Y500904D01*
X130368Y502677D01*
G75*
D01*
G03X153207Y511519I2220J28183*
G01*
X153207Y511519D01*
X153207Y260538D01*
G75*
D01*
G03X189924Y269690I23438J-15804*
G01*
X189924Y269690D01*
X189924Y664095D01*
G74*
D01*
G03X184535Y677088I18359J1*
G01*
X184535Y677088D01*
X160771Y700852D01*
G75*
D01*
G03X111927Y683777I-28183J2220*
G01*
G75*
D01*
G03X103389Y661228I19645J-20329*
G01*
X103389Y661228D01*
X76935Y634773D01*
G75*
D01*
G03X71558Y621773I12980J-12981*
G01*
X71558Y621773D01*
X71558Y112801D01*
G75*
D01*
G03X76935Y99795I18358J-25*
G01*
X76935Y99795D01*
X140435Y36295D01*
G74*
D01*
G03X152663Y30933I12981J12980*
G01*
G75*
D01*
G03X153416Y30918I742J18343*
G01*
X153416Y30918D01*
X153467Y30918D01*
G75*
D01*
G03X199823Y30918I23178J-16186*
G01*
X199823Y30918D01*
X227127Y30918D01*
G75*
D01*
G03X273483Y30918I23178J-16186*
G01*
X273483Y30918D01*
X326152Y30918D01*
X344942Y12128D01*
X344942Y9707D01*
G75*
D01*
G03X363275Y-8626I18333J0*
G01*
X363275Y-8626D01*
X373325Y-8626D01*
G74*
D01*
G03X382942Y-5902I1J18333*
G01*
G75*
D01*
G03X409345Y31958I10759J20633*
G01*
G74*
D01*
G03X406670Y35345I15644J9606*
G01*
X406670Y35345D01*
X360888Y81127D01*
X378878Y99117D01*
X414077Y99117D01*
G75*
D01*
G03X468128Y94586I26359J-10214*
G01*
G75*
D01*
G03X492015Y104377I248J33429*
G01*
X492015Y104377D01*
X514860Y127221D01*
G75*
D01*
G03X524667Y150876I-23624J23655*
G01*
X524667Y150876D01*
X524667Y210174D01*
X551262Y236769D01*
X595357Y236769D01*
D02*
G37*
G36*
X226666Y229228D02*
G75*
D01*
G03X226666Y229228I23639J15504*
G01*
D02*
G37*
G36*
X437976Y375920D02*
G75*
D01*
G03X437976Y375920I5000J0*
G01*
D02*
G37*
G36*
X435944Y788924D02*
G75*
D01*
G03X435944Y788924I5000J0*
G01*
D02*
G37*
G36*
X590474Y618744D02*
G75*
D01*
G03X590474Y618744I28270J0*
G01*
D02*
G37*
G36*
X126572Y742188D02*
G75*
D01*
G03X126572Y742188I5000J0*
G01*
D02*
G37*
%LPD*%
G36*
X457805Y190311D02*
X457805Y190311D01*
X457805Y270571D01*
G75*
D01*
G02X415447Y288210I-14829J24069*
G01*
X415447Y288210D01*
X415447Y218064D01*
X436448Y197063D01*
X439420Y197063D01*
G74*
D01*
G02X457805Y190311I0J28407*
G01*
D02*
G37*
G36*
X129352Y635265D02*
G75*
D01*
G03X153207Y645251I2220J28183*
G01*
X153207Y645251D01*
X153207Y589825D01*
G75*
D01*
G03X108274Y584908I-20619J-19340*
G01*
X108274Y584908D01*
X108274Y614188D01*
X129352Y635265D01*
D02*
G37*
%LPC*%
G36*
X127588Y609600D02*
G75*
D01*
G03X127588Y609600I5000J0*
G01*
D02*
G37*
%LPD*%
G36*
X415447Y301070D02*
G74*
D01*
G02X422473Y314103I27528J6430*
G01*
G74*
D01*
G02X415447Y324574I19487J20668*
G01*
X415447Y324574D01*
X415447Y301070D01*
D02*
G37*
G54D11*
X415447Y301070D02*
G74*
D01*
G02X422473Y314103I27528J6430*
G01*
G74*
D01*
G02X415447Y324574I19487J20668*
G01*
X415447Y301070D01*
X127588Y609600D02*
G75*
D01*
G03X127588Y609600I5000J0*
G01*
X129352Y635265D02*
G75*
D01*
G03X153207Y645251I2220J28183*
G01*
X153207Y589825D01*
G75*
D01*
G03X108274Y584908I-20619J-19340*
G01*
X108274Y614188D01*
X129352Y635265D01*
X457805Y190311D02*
X457805Y270571D01*
G75*
D01*
G02X415447Y288210I-14829J24069*
G01*
X415447Y218064D01*
X436448Y197063D01*
X439420Y197063D01*
G74*
D01*
G02X457805Y190311I0J28407*
G01*
X595357Y236769D02*
G75*
D01*
G03X605510Y238638I19J28407*
G01*
G74*
D01*
G03X615477Y245104I10135J26537*
G01*
X638816Y268443D01*
G75*
D01*
G03X647151Y288544I-20071J20101*
G01*
X647151Y308744D01*
G75*
D01*
G03X590337Y308744I-28407J0*
G01*
X590337Y300310D01*
X583610Y293583D01*
X548722Y293583D01*
X524667Y317638D01*
X524667Y477388D01*
X563120Y515841D01*
G75*
D01*
G03X572927Y539496I-23624J23655*
G01*
X572927Y649407D01*
G75*
D01*
G03X574280Y649338I1355J13264*
G01*
X604280Y649338D01*
G75*
D01*
G03X617614Y662672I0J13334*
G01*
X617614Y692672D01*
G74*
D01*
G03X604280Y706006I13334J0*
G01*
X574280Y706006D01*
G75*
D01*
G03X572927Y705937I2J-13334*
G01*
X572927Y829056D01*
G74*
D01*
G03X563120Y852711I33431J0*
G01*
X554131Y861700D01*
X554131Y942848D01*
G75*
D01*
G03X495300Y964584I-33431J0*
G01*
G75*
D01*
G03X436469Y942848I-25401J-21734*
G01*
X436469Y825018D01*
G75*
D01*
G03X446261Y801353I33431J-25*
G01*
X457670Y789943D01*
X443402Y775675D01*
X441960Y775675D01*
G75*
D01*
G03X421201Y727877I0J-28407*
G01*
G75*
D01*
G03X457805Y684953I19737J-20238*
G01*
X457805Y604564D01*
G75*
D01*
G03X439049Y609272I-15845J-23411*
G01*
G74*
D01*
G03X422656Y613567I16393J29136*
G01*
X387096Y613567D01*
G75*
D01*
G03X387096Y546705I0J-33431*
G01*
X414268Y546705D01*
G75*
D01*
G03X421467Y521546I27691J-5686*
G01*
G74*
D01*
G03X422486Y520364I22016J17950*
G01*
G75*
D01*
G03X457805Y476460I19468J-20497*
G01*
X457805Y376058D01*
X444926Y363179D01*
X441960Y363179D01*
G75*
D01*
G03X415295Y344565I1J-28407*
G01*
G74*
D01*
G03X405640Y365031I33279J3189*
G01*
X342111Y428559D01*
X324007Y446664D01*
X324007Y721228D01*
X391924Y789145D01*
G75*
D01*
G03X401731Y812800I-23624J23655*
G01*
X401731Y942848D01*
G74*
D01*
G03X399155Y955716I33431J1*
G01*
G74*
D01*
G03X381168Y973703I18330J343*
G01*
G75*
D01*
G03X355432Y973703I-12868J-30854*
G01*
G74*
D01*
G03X337445Y955716I343J18330*
G01*
G74*
D01*
G03X334869Y942848I30854J12868*
G01*
X334869Y826648D01*
X266937Y758715D01*
G75*
D01*
G03X257145Y735048I23638J-23639*
G01*
X257145Y601228D01*
G74*
D01*
G03X250712Y602882I6432J11680*
G01*
X220712Y602882D01*
G75*
D01*
G03X207378Y589548I0J-13334*
G01*
X207378Y559548D01*
G75*
D01*
G03X220712Y546214I13334J0*
G01*
X250712Y546214D01*
G74*
D01*
G03X257145Y547868I1J13334*
G01*
X257145Y485982D01*
G75*
D01*
G03X257145Y449114I-21432J-18434*
G01*
X257145Y432838D01*
G75*
D01*
G03X266937Y409177I33431J-21*
G01*
X348585Y327528D01*
X348585Y251598D01*
X331569Y234582D01*
X323836Y234582D01*
G75*
D01*
G03X310502Y221248I0J-13334*
G01*
X310502Y208277D01*
G75*
D01*
G03X310502Y204219I28333J-2029*
G01*
X310502Y191248D01*
G75*
D01*
G03X323836Y177914I13334J0*
G01*
X336807Y177914D01*
G75*
D01*
G03X338836Y177841I2035J28333*
G01*
X361112Y177841D01*
X383023Y155931D01*
X367112Y155931D01*
G75*
D01*
G03X360690Y155195I2J-28407*
G01*
G74*
D01*
G03X347025Y147611I6420J27671*
G01*
X318749Y119335D01*
G75*
D01*
G03X312771Y87954I20087J-20086*
G01*
X168640Y87954D01*
X128594Y128000D01*
X128594Y500904D01*
X130368Y502677D01*
G75*
D01*
G03X153207Y511519I2220J28183*
G01*
X153207Y260538D01*
G75*
D01*
G03X189924Y269690I23438J-15804*
G01*
X189924Y664095D01*
G74*
D01*
G03X184535Y677088I18359J1*
G01*
X160771Y700852D01*
G75*
D01*
G03X111927Y683777I-28183J2220*
G01*
G75*
D01*
G03X103389Y661228I19645J-20329*
G01*
X76935Y634773D01*
G75*
D01*
G03X71558Y621773I12980J-12981*
G01*
X71558Y112801D01*
G75*
D01*
G03X76935Y99795I18358J-25*
G01*
X140435Y36295D01*
G74*
D01*
G03X152663Y30933I12981J12980*
G01*
G75*
D01*
G03X153416Y30918I742J18343*
G01*
X153467Y30918D01*
G75*
D01*
G03X199823Y30918I23178J-16186*
G01*
X227127Y30918D01*
G75*
D01*
G03X273483Y30918I23178J-16186*
G01*
X326152Y30918D01*
X344942Y12128D01*
X344942Y9707D01*
G75*
D01*
G03X363275Y-8626I18333J0*
G01*
X373325Y-8626D01*
G74*
D01*
G03X382942Y-5902I1J18333*
G01*
G75*
D01*
G03X409345Y31958I10759J20633*
G01*
G74*
D01*
G03X406670Y35345I15644J9606*
G01*
X360888Y81127D01*
X378878Y99117D01*
X414077Y99117D01*
G75*
D01*
G03X468128Y94586I26359J-10214*
G01*
G75*
D01*
G03X492015Y104377I248J33429*
G01*
X514860Y127221D01*
G75*
D01*
G03X524667Y150876I-23624J23655*
G01*
X524667Y210174D01*
X551262Y236769D01*
X595357Y236769D01*
X226666Y229228D02*
G75*
D01*
G03X226666Y229228I23639J15504*
G01*
X437976Y375920D02*
G75*
D01*
G03X437976Y375920I5000J0*
G01*
X435944Y788924D02*
G75*
D01*
G03X435944Y788924I5000J0*
G01*
X590474Y618744D02*
G75*
D01*
G03X590474Y618744I28270J0*
G01*
X126572Y742188D02*
G75*
D01*
G03X126572Y742188I5000J0*
G01*
X706666Y34926D02*
G75*
D01*
G03X644412Y-24772I-33568J-27303*
G01*
X76335Y-24772D01*
G75*
D01*
G03X13334Y31807I-25538J34929*
G01*
X13334Y928791D01*
G75*
D01*
G03X75791Y988559I29857J31317*
G01*
X643029Y988559D01*
G75*
D01*
G03X706666Y929959I32591J-28461*
G01*
X706666Y34926D01*
G54D12*
X368300Y14732D02*
X333756Y49276D01*
X419100Y14732D02*
X436372Y14732D01*
X656336Y234696D01*
X333756Y49276D02*
X153416Y49276D01*
X656336Y234696D02*
X656336Y336296D01*
X656336Y336296D02*
X620456Y372176D01*
X620456Y372176D02*
X545084Y372176D01*
X110236Y508508D02*
X132588Y530860D01*
X89916Y112776D02*
X89916Y621792D01*
X153416Y49276D02*
X89916Y112776D01*
X89916Y621792D02*
X131572Y663448D01*
X171565Y249812D02*
X171565Y664095D01*
X132588Y703072D01*
X171565Y249812D02*
X176645Y244732D01*
X110236Y120396D02*
X110236Y508508D01*
X161036Y69596D02*
X110236Y120396D01*
X393700Y22352D02*
X346456Y69596D01*
X393700Y22352D02*
X393700Y14732D01*
X346456Y69596D02*
X161036Y69596D01*
G54D13*
X367112Y127524D02*
X338836Y99248D01*
X440960Y127524D02*
X367112Y127524D01*
X468376Y128016D02*
X442468Y128016D01*
X417576Y168656D02*
X439420Y168656D01*
X338836Y206248D02*
X379984Y206248D01*
X343408Y206248D02*
X382016Y244856D01*
X379984Y206248D02*
X382016Y204216D01*
X539496Y265176D02*
X491236Y216916D01*
X536956Y265176D02*
X491236Y310896D01*
X536956Y265176D02*
X539496Y265176D01*
X545084Y265176D02*
X595376Y265176D01*
X618744Y288544D02*
X595376Y265176D01*
X457200Y334772D02*
X491236Y300736D01*
X618744Y308744D02*
X618744Y288544D01*
X441960Y334772D02*
X457200Y334772D01*
X456692Y334772D02*
X491236Y369316D01*
X415036Y376936D02*
X441960Y376936D01*
X465836Y539496D02*
X443484Y539496D01*
X422656Y580136D02*
X442976Y580136D01*
X456946Y746506D02*
X488696Y714756D01*
X491236Y714756D02*
X493776Y712216D01*
X488696Y714756D02*
X491236Y714756D01*
X441960Y747268D02*
X455168Y747268D01*
X453644Y747268D02*
X454406Y746506D01*
X455168Y747268D02*
X491236Y783336D01*
X456946Y746506D02*
X454406Y746506D01*
X419608Y788924D02*
X440944Y788924D01*
X436372Y788924D02*
X436372Y794004D01*
X419100Y811276D01*
X509016Y265176D02*
X511556Y262636D01*
G54D14*
X491236Y150876D02*
X468376Y128016D01*
X491236Y491236D02*
X491236Y150876D01*
X382016Y204216D02*
X417576Y168656D01*
X382016Y341376D02*
X382016Y204216D01*
X290576Y432816D02*
X382016Y341376D01*
X338836Y453136D02*
X415036Y376936D01*
X290576Y735076D02*
X290576Y432816D01*
X338836Y707136D02*
X338836Y453136D01*
X539496Y539496D02*
X491236Y491236D01*
X491236Y564896D02*
X465836Y539496D01*
X539496Y829056D02*
X539496Y539496D01*
X491236Y803656D02*
X491236Y564896D01*
X387096Y580136D02*
X422656Y580136D01*
X419100Y787400D02*
X338836Y707136D01*
X368300Y812800D02*
X290576Y735076D01*
X419100Y942848D02*
X419100Y787400D01*
X469900Y824992D02*
X491236Y803656D01*
X368300Y942848D02*
X368300Y812800D01*
X469900Y942848D02*
X469900Y824992D01*
X520700Y847852D02*
X539496Y829056D01*
X520700Y942848D02*
X520700Y847852D01*
X81280Y746760D02*
X190500Y746760D01*
X68580Y769620D02*
X187960Y769620D01*
G54D15*
X-2540Y-40647D02*
X-2540Y63861D01*
X-2540Y-40647D02*
X69968Y-40647D01*
X722540Y-40647D02*
X650032Y-40647D01*
X722540Y-40647D02*
X722540Y63861D01*
X722540Y1004433D02*
X722540Y899925D01*
X722540Y1004433D02*
X650032Y1004433D01*
X-2540Y1004433D02*
X69968Y1004433D01*
X-2540Y1004433D02*
X-2540Y899925D01*
X-52540Y-40647D02*
X-152540Y-40647D01*
X-102540Y-90647D02*
X-102540Y9353D01*
X-140040Y-40647D02*
G75*
D01*
G02X-140040Y-40647I37500J0*
G01*
X772540Y-40647D02*
X872540Y-40647D01*
X822540Y-90647D02*
X822540Y9353D01*
X785040Y-40647D02*
G75*
D01*
G02X785040Y-40647I37500J0*
G01*
X810040Y-40647D02*
G75*
D01*
G02X810040Y-40647I12500J0*
G01*
X-52540Y1004433D02*
X-152540Y1004433D01*
X-102540Y954433D02*
X-102540Y1054433D01*
X-140040Y1004433D02*
G75*
D01*
G02X-140040Y1004433I37500J0*
G01*
X-127540Y1004433D02*
G75*
D01*
G02X-127540Y1004433I25000J0*
G01*
X-115040Y1004433D02*
G75*
D01*
G02X-115040Y1004433I12500J0*
G01*
G54D16*
X176645Y14732D03*
X176645Y244732D03*
X250305Y14732D03*
X250305Y244732D03*
X338836Y99248D03*
X440436Y88900D03*
X441960Y128524D03*
X440436Y167640D03*
X545084Y372176D03*
X442976Y294640D03*
X441960Y334772D03*
X442976Y375920D03*
X618744Y308744D03*
X618744Y618744D03*
X235712Y467548D03*
X441960Y499872D03*
X441960Y541020D03*
X441960Y581152D03*
X132588Y530860D03*
X132588Y570484D03*
X132588Y609600D03*
X589280Y784672D03*
X440944Y707644D03*
X441960Y747268D03*
X440944Y788924D03*
X131572Y663448D03*
X131572Y742188D03*
X132588Y703072D03*
G54D17*
X368300Y14732D03*
G54D18*
X363275Y9707D02*
X373325Y9707D01*
X373325Y19757D01*
X363275Y19757D01*
X363275Y9707D01*D02*
X355775Y930323D02*
X380825Y930323D01*
X380825Y955373D01*
X355775Y955373D01*
X355775Y930323D01*D02*
G54D19*
X393700Y14732D03*
X419100Y14732D03*
G54D20*
X338836Y206248D03*
X545084Y265176D03*
X235712Y574548D03*
X589280Y677672D03*
G54D21*
X368300Y942848D03*
G54D22*
X419100Y942848D03*
X469900Y942848D03*
X520700Y942848D03*
G54D23*
X290576Y580136D03*
X387096Y580136D03*

M02*
