G04 Generated by Ultiboard 14.0 *
%FSLAX34Y34*%
%MOMM*%

%ADD10C,0.0001*%
%ADD11C,0.2540*%
%ADD12C,1.0000*%
%ADD13C,3.0000*%
%ADD14C,4.0000*%
%ADD15C,0.1270*%
%ADD16R,3.0000X3.0000*%
%ADD17C,3.0000*%
%ADD18R,1.0051X1.0051*%
%ADD19C,0.9949*%
%ADD20C,2.0000*%
%ADD21R,2.5051X2.5051*%
%ADD22C,3.5000*%
%ADD23C,4.0000*%


G04 ColorRGB 00FF00 for the following layer *
%LNCopper Top*%
%LPD*%
G54D10*
G36*
X13334Y31807D02*
X13334Y31807D01*
X13334Y928791D01*
G75*
D01*
G03X75791Y988559I29857J31317*
G01*
X75791Y988559D01*
X643029Y988559D01*
G75*
D01*
G03X706666Y929959I32591J-28461*
G01*
X706666Y929959D01*
X706666Y34926D01*
G75*
D01*
G03X644412Y-24772I-33568J-27303*
G01*
X644412Y-24772D01*
X76335Y-24772D01*
G75*
D01*
G03X13334Y31807I-25538J34929*
G01*
D02*
G37*
%LPC*%
G36*
X180778Y295919D02*
G75*
D01*
G03X186155Y282920I18358J-18*
G01*
X186155Y282920D01*
X222122Y246952D01*
G75*
D01*
G03X278488Y246952I28183J-2216*
G01*
X278488Y246952D01*
X307817Y276282D01*
X421478Y276282D01*
G75*
D01*
G03X445196Y266457I21498J18357*
G01*
X445196Y266457D01*
X456114Y255540D01*
X456114Y152996D01*
G75*
D01*
G03X421061Y109486I-14156J-24470*
G01*
G75*
D01*
G03X461934Y70542I19384J-20576*
G01*
X461934Y70542D01*
X462270Y70542D01*
G75*
D01*
G03X466323Y70992I13J18358*
G01*
G74*
D01*
G03X475273Y75930I4043J17907*
G01*
X475273Y75930D01*
X487442Y88099D01*
G75*
D01*
G03X492830Y101092I-12970J12992*
G01*
X492830Y101092D01*
X492830Y263144D01*
G74*
D01*
G03X487442Y276137I18358J1*
G01*
X487442Y276137D01*
X471159Y292420D01*
G75*
D01*
G03X462369Y315210I-28183J2220*
G01*
G75*
D01*
G03X467196Y347513I-20409J19562*
G01*
X467196Y347513D01*
X530988Y347513D01*
G75*
D01*
G03X565171Y392263I14097J24662*
G01*
X565171Y392263D01*
X561441Y395992D01*
G74*
D01*
G03X541340Y404327I20101J20071*
G01*
X541340Y404327D01*
X442976Y404327D01*
G75*
D01*
G03X422991Y355733I1J-28407*
G01*
G75*
D01*
G03X422567Y314202I18967J-20961*
G01*
G74*
D01*
G03X421478Y312998I20413J19558*
G01*
X421478Y312998D01*
X300213Y312998D01*
G75*
D01*
G03X295425Y312363I-1J-18358*
G01*
G74*
D01*
G03X287232Y307621I4789J17722*
G01*
X287232Y307621D01*
X252525Y272915D01*
G75*
D01*
G03X248085Y272915I-2220J-28183*
G01*
X248085Y272915D01*
X217494Y303505D01*
X217494Y445752D01*
G75*
D01*
G03X264119Y467548I18218J21796*
G01*
X264119Y467548D01*
X264119Y482010D01*
X290658Y508549D01*
X415055Y508549D01*
G75*
D01*
G03X463458Y481514I26903J-8680*
G01*
X463458Y481514D01*
X466848Y481514D01*
G75*
D01*
G03X467712Y481534I7J18358*
G01*
G74*
D01*
G03X479845Y486902I859J18338*
G01*
X479845Y486902D01*
X499126Y506183D01*
G75*
D01*
G03X504514Y519176I-12970J12992*
G01*
X504514Y519176D01*
X504514Y684276D01*
G74*
D01*
G03X499126Y697269I18358J1*
G01*
X499126Y697269D01*
X477533Y718861D01*
X507918Y718861D01*
X558220Y668559D01*
X560946Y665833D01*
X560946Y662672D01*
G75*
D01*
G03X574280Y649338I13334J0*
G01*
X574280Y649338D01*
X577441Y649338D01*
X590337Y636442D01*
X590337Y618744D01*
G75*
D01*
G03X590410Y616715I28407J6*
G01*
X590410Y616715D01*
X590410Y603744D01*
G75*
D01*
G03X603744Y590410I13334J0*
G01*
X603744Y590410D01*
X616715Y590410D01*
G75*
D01*
G03X620773Y590410I2029J28333*
G01*
X620773Y590410D01*
X633744Y590410D01*
G75*
D01*
G03X647078Y603744I0J13334*
G01*
X647078Y603744D01*
X647078Y616715D01*
G75*
D01*
G03X647151Y618744I-28333J2035*
G01*
X647151Y618744D01*
X647151Y648208D01*
G74*
D01*
G03X638816Y668309I28407J1*
G01*
X638816Y668309D01*
X638566Y668559D01*
X617614Y689511D01*
X617614Y692672D01*
G74*
D01*
G03X604280Y706006I13334J0*
G01*
X604280Y706006D01*
X601119Y706006D01*
X546608Y760517D01*
X574330Y760517D01*
G75*
D01*
G03X609367Y804759I14952J24154*
G01*
X609367Y804759D01*
X605129Y808996D01*
G74*
D01*
G03X585028Y817331I20101J20071*
G01*
X585028Y817331D01*
X440944Y817331D01*
G75*
D01*
G03X419266Y807282I0J-28407*
G01*
X419266Y807282D01*
X178308Y807282D01*
G75*
D01*
G03X175558Y807075I-1J-18358*
G01*
G74*
D01*
G03X165327Y801905I2750J18151*
G01*
X165327Y801905D01*
X133792Y770371D01*
G75*
D01*
G03X109949Y760399I-2220J-28183*
G01*
G74*
D01*
G03X99287Y755169I2319J18211*
G01*
X99287Y755169D01*
X87095Y742977D01*
G75*
D01*
G03X81718Y729981I12980J-12981*
G01*
X81718Y729981D01*
X81718Y625877D01*
G75*
D01*
G03X87095Y612875I18358J-21*
G01*
X87095Y612875D01*
X103351Y596619D01*
G74*
D01*
G03X110167Y592308I12981J12980*
G01*
G74*
D01*
G03X110245Y592280I6242J17264*
G01*
G74*
D01*
G03X112175Y590042I22344J17317*
G01*
G75*
D01*
G03X112422Y550672I20413J-19558*
G01*
G75*
D01*
G03X158205Y518904I20169J-19808*
G01*
X158205Y518904D01*
X180778Y496332D01*
X180778Y295919D01*
D02*
G37*
G36*
X444500Y925480D02*
G75*
D01*
G03X495300Y925480I25400J17368*
G01*
G75*
D01*
G03X495300Y960216I25400J17368*
G01*
G75*
D01*
G03X444500Y960216I-25400J-17368*
G01*
G75*
D01*
G03X444500Y925480I-25400J-17368*
G01*
D02*
G37*
G36*
X171645Y14732D02*
G75*
D01*
G03X171645Y14732I5000J0*
G01*
D02*
G37*
G36*
X148375Y244732D02*
G75*
D01*
G03X148375Y244732I28270J0*
G01*
D02*
G37*
G36*
X435436Y167640D02*
G75*
D01*
G03X435436Y167640I5000J0*
G01*
D02*
G37*
G36*
X245305Y14732D02*
G75*
D01*
G03X245305Y14732I5000J0*
G01*
D02*
G37*
G36*
X406400Y-4767D02*
G75*
D01*
G03X406400Y34231I12700J19499*
G01*
G75*
D01*
G03X382942Y35366I-12700J-19499*
G01*
G74*
D01*
G03X373325Y38090I9616J15609*
G01*
X373325Y38090D01*
X363275Y38090D01*
G75*
D01*
G03X344942Y19757I0J-18333*
G01*
X344942Y19757D01*
X344942Y9707D01*
G75*
D01*
G03X363275Y-8626I18333J0*
G01*
X363275Y-8626D01*
X373325Y-8626D01*
G74*
D01*
G03X382942Y-5902I1J18333*
G01*
G75*
D01*
G03X406400Y-4767I10758J20634*
G01*
D02*
G37*
G36*
X310566Y99248D02*
G75*
D01*
G03X310566Y99248I28270J0*
G01*
D02*
G37*
G36*
X573418Y250176D02*
X573418Y250176D01*
X573418Y280176D01*
G74*
D01*
G03X560084Y293510I13334J0*
G01*
X560084Y293510D01*
X530084Y293510D01*
G75*
D01*
G03X516750Y280176I0J-13334*
G01*
X516750Y280176D01*
X516750Y250176D01*
G75*
D01*
G03X530084Y236842I13334J0*
G01*
X530084Y236842D01*
X560084Y236842D01*
G75*
D01*
G03X573418Y250176I0J13334*
G01*
D02*
G37*
G36*
X590474Y308744D02*
G75*
D01*
G03X590474Y308744I28270J0*
G01*
D02*
G37*
%LPD*%
G36*
X467798Y552825D02*
G75*
D01*
G03X427318Y565363I-25838J-11805*
G01*
X427318Y565363D01*
X278911Y565363D01*
G75*
D01*
G03X258805Y557043I-19J-28407*
G01*
X258805Y557043D01*
X226666Y524903D01*
X220622Y518859D01*
G74*
D01*
G03X214612Y513811I15089J24067*
G01*
G74*
D01*
G03X212106Y516929I15477J9873*
G01*
X212106Y516929D01*
X160771Y568264D01*
G75*
D01*
G03X153001Y590042I-28183J2220*
G01*
G75*
D01*
G03X140683Y636686I-20413J19558*
G01*
G75*
D01*
G03X152233Y682743I-9111J26762*
G01*
G74*
D01*
G03X157269Y689286I19644J20329*
G01*
X157269Y689286D01*
X419446Y689286D01*
G75*
D01*
G03X458768Y685701I21498J18357*
G01*
X458768Y685701D01*
X466666Y677803D01*
X466666Y677803D01*
X467798Y676672D01*
X467798Y552825D01*
D02*
G37*
%LPC*%
G36*
X436960Y581152D02*
G75*
D01*
G03X436960Y581152I5000J0*
G01*
D02*
G37*
%LPD*%
G36*
X154750Y726002D02*
X154750Y726002D01*
X419446Y726002D01*
G74*
D01*
G02X421201Y727877I21495J18360*
G01*
G75*
D01*
G02X422148Y767625I20758J19391*
G01*
G74*
D01*
G02X419266Y770566I18794J21300*
G01*
X419266Y770566D01*
X185912Y770566D01*
X159755Y744408D01*
G75*
D01*
G02X154750Y726002I-28183J-2220*
G01*
D02*
G37*
G54D11*
X436960Y581152D02*
G75*
D01*
G03X436960Y581152I5000J0*
G01*
X467798Y552825D02*
G75*
D01*
G03X427318Y565363I-25838J-11805*
G01*
X278911Y565363D01*
G75*
D01*
G03X258805Y557043I-19J-28407*
G01*
X226666Y524903D01*
X220622Y518859D01*
G74*
D01*
G03X214612Y513811I15089J24067*
G01*
G74*
D01*
G03X212106Y516929I15477J9873*
G01*
X160771Y568264D01*
G75*
D01*
G03X153001Y590042I-28183J2220*
G01*
G75*
D01*
G03X140683Y636686I-20413J19558*
G01*
G75*
D01*
G03X152233Y682743I-9111J26762*
G01*
G74*
D01*
G03X157269Y689286I19644J20329*
G01*
X419446Y689286D01*
G75*
D01*
G03X458768Y685701I21498J18357*
G01*
X466666Y677803D01*
X466666Y677803D01*
X467798Y676672D01*
X467798Y552825D01*
X154750Y726002D02*
X419446Y726002D01*
G74*
D01*
G02X421201Y727877I21495J18360*
G01*
G75*
D01*
G02X422148Y767625I20758J19391*
G01*
G74*
D01*
G02X419266Y770566I18794J21300*
G01*
X185912Y770566D01*
X159755Y744408D01*
G75*
D01*
G02X154750Y726002I-28183J-2220*
G01*
X180778Y295919D02*
G75*
D01*
G03X186155Y282920I18358J-18*
G01*
X222122Y246952D01*
G75*
D01*
G03X278488Y246952I28183J-2216*
G01*
X307817Y276282D01*
X421478Y276282D01*
G75*
D01*
G03X445196Y266457I21498J18357*
G01*
X456114Y255540D01*
X456114Y152996D01*
G75*
D01*
G03X421061Y109486I-14156J-24470*
G01*
G75*
D01*
G03X461934Y70542I19384J-20576*
G01*
X462270Y70542D01*
G75*
D01*
G03X466323Y70992I13J18358*
G01*
G74*
D01*
G03X475273Y75930I4043J17907*
G01*
X487442Y88099D01*
G75*
D01*
G03X492830Y101092I-12970J12992*
G01*
X492830Y263144D01*
G74*
D01*
G03X487442Y276137I18358J1*
G01*
X471159Y292420D01*
G75*
D01*
G03X462369Y315210I-28183J2220*
G01*
G75*
D01*
G03X467196Y347513I-20409J19562*
G01*
X530988Y347513D01*
G75*
D01*
G03X565171Y392263I14097J24662*
G01*
X561441Y395992D01*
G74*
D01*
G03X541340Y404327I20101J20071*
G01*
X442976Y404327D01*
G75*
D01*
G03X422991Y355733I1J-28407*
G01*
G75*
D01*
G03X422567Y314202I18967J-20961*
G01*
G74*
D01*
G03X421478Y312998I20413J19558*
G01*
X300213Y312998D01*
G75*
D01*
G03X295425Y312363I-1J-18358*
G01*
G74*
D01*
G03X287232Y307621I4789J17722*
G01*
X252525Y272915D01*
G75*
D01*
G03X248085Y272915I-2220J-28183*
G01*
X217494Y303505D01*
X217494Y445752D01*
G75*
D01*
G03X264119Y467548I18218J21796*
G01*
X264119Y482010D01*
X290658Y508549D01*
X415055Y508549D01*
G75*
D01*
G03X463458Y481514I26903J-8680*
G01*
X466848Y481514D01*
G75*
D01*
G03X467712Y481534I7J18358*
G01*
G74*
D01*
G03X479845Y486902I859J18338*
G01*
X499126Y506183D01*
G75*
D01*
G03X504514Y519176I-12970J12992*
G01*
X504514Y684276D01*
G74*
D01*
G03X499126Y697269I18358J1*
G01*
X477533Y718861D01*
X507918Y718861D01*
X558220Y668559D01*
X560946Y665833D01*
X560946Y662672D01*
G75*
D01*
G03X574280Y649338I13334J0*
G01*
X577441Y649338D01*
X590337Y636442D01*
X590337Y618744D01*
G75*
D01*
G03X590410Y616715I28407J6*
G01*
X590410Y603744D01*
G75*
D01*
G03X603744Y590410I13334J0*
G01*
X616715Y590410D01*
G75*
D01*
G03X620773Y590410I2029J28333*
G01*
X633744Y590410D01*
G75*
D01*
G03X647078Y603744I0J13334*
G01*
X647078Y616715D01*
G75*
D01*
G03X647151Y618744I-28333J2035*
G01*
X647151Y648208D01*
G74*
D01*
G03X638816Y668309I28407J1*
G01*
X638566Y668559D01*
X617614Y689511D01*
X617614Y692672D01*
G74*
D01*
G03X604280Y706006I13334J0*
G01*
X601119Y706006D01*
X546608Y760517D01*
X574330Y760517D01*
G75*
D01*
G03X609367Y804759I14952J24154*
G01*
X605129Y808996D01*
G74*
D01*
G03X585028Y817331I20101J20071*
G01*
X440944Y817331D01*
G75*
D01*
G03X419266Y807282I0J-28407*
G01*
X178308Y807282D01*
G75*
D01*
G03X175558Y807075I-1J-18358*
G01*
G74*
D01*
G03X165327Y801905I2750J18151*
G01*
X133792Y770371D01*
G75*
D01*
G03X109949Y760399I-2220J-28183*
G01*
G74*
D01*
G03X99287Y755169I2319J18211*
G01*
X87095Y742977D01*
G75*
D01*
G03X81718Y729981I12980J-12981*
G01*
X81718Y625877D01*
G75*
D01*
G03X87095Y612875I18358J-21*
G01*
X103351Y596619D01*
G74*
D01*
G03X110167Y592308I12981J12980*
G01*
G74*
D01*
G03X110245Y592280I6242J17264*
G01*
G74*
D01*
G03X112175Y590042I22344J17317*
G01*
G75*
D01*
G03X112422Y550672I20413J-19558*
G01*
G75*
D01*
G03X158205Y518904I20169J-19808*
G01*
X180778Y496332D01*
X180778Y295919D01*
X444500Y925480D02*
G75*
D01*
G03X495300Y925480I25400J17368*
G01*
G75*
D01*
G03X495300Y960216I25400J17368*
G01*
G75*
D01*
G03X444500Y960216I-25400J-17368*
G01*
G75*
D01*
G03X444500Y925480I-25400J-17368*
G01*
X171645Y14732D02*
G75*
D01*
G03X171645Y14732I5000J0*
G01*
X148375Y244732D02*
G75*
D01*
G03X148375Y244732I28270J0*
G01*
X435436Y167640D02*
G75*
D01*
G03X435436Y167640I5000J0*
G01*
X245305Y14732D02*
G75*
D01*
G03X245305Y14732I5000J0*
G01*
X406400Y-4767D02*
G75*
D01*
G03X406400Y34231I12700J19499*
G01*
G75*
D01*
G03X382942Y35366I-12700J-19499*
G01*
G74*
D01*
G03X373325Y38090I9616J15609*
G01*
X363275Y38090D01*
G75*
D01*
G03X344942Y19757I0J-18333*
G01*
X344942Y9707D01*
G75*
D01*
G03X363275Y-8626I18333J0*
G01*
X373325Y-8626D01*
G74*
D01*
G03X382942Y-5902I1J18333*
G01*
G75*
D01*
G03X406400Y-4767I10758J20634*
G01*
X310566Y99248D02*
G75*
D01*
G03X310566Y99248I28270J0*
G01*
X573418Y250176D02*
X573418Y280176D01*
G74*
D01*
G03X560084Y293510I13334J0*
G01*
X530084Y293510D01*
G75*
D01*
G03X516750Y280176I0J-13334*
G01*
X516750Y250176D01*
G75*
D01*
G03X530084Y236842I13334J0*
G01*
X560084Y236842D01*
G75*
D01*
G03X573418Y250176I0J13334*
G01*
X590474Y308744D02*
G75*
D01*
G03X590474Y308744I28270J0*
G01*
X13334Y31807D02*
X13334Y928791D01*
G75*
D01*
G03X75791Y988559I29857J31317*
G01*
X643029Y988559D01*
G75*
D01*
G03X706666Y929959I32591J-28461*
G01*
X706666Y34926D01*
G75*
D01*
G03X644412Y-24772I-33568J-27303*
G01*
X76335Y-24772D01*
G75*
D01*
G03X13334Y31807I-25538J34929*
G01*
G54D12*
X176645Y14732D02*
X271272Y14732D01*
X305816Y49276D01*
X305816Y173228D01*
X462280Y88900D02*
X440436Y88900D01*
X474472Y101092D02*
X462280Y88900D01*
X474472Y263144D02*
X474472Y101092D01*
X305816Y173228D02*
X338836Y206248D01*
X199136Y295901D02*
X250305Y244732D01*
X300213Y294640D02*
X250305Y244732D01*
X474472Y263144D02*
X442976Y294640D01*
X199136Y503936D02*
X199136Y295901D01*
X300213Y294640D02*
X442976Y294640D01*
X132588Y570484D02*
X199136Y503936D01*
X466852Y499872D02*
X441960Y499872D01*
X486156Y519176D02*
X466852Y499872D01*
X486156Y684276D02*
X486156Y519176D01*
X132588Y609600D02*
X116332Y609600D01*
X462788Y707644D02*
X486156Y684276D01*
X137160Y707644D02*
X132588Y703072D01*
X137160Y707644D02*
X462788Y707644D01*
X112268Y742188D02*
X131572Y742188D01*
X178308Y788924D02*
X131572Y742188D01*
X440944Y788924D02*
X178308Y788924D01*
X100076Y625856D02*
X100076Y729996D01*
X116332Y609600D02*
X100076Y625856D01*
X100076Y729996D02*
X112268Y742188D01*
G54D13*
X442976Y375920D02*
X541340Y375920D01*
X545084Y372176D01*
X235712Y467548D02*
X235712Y494792D01*
X235712Y493776D02*
X278892Y536956D01*
X278892Y536956D02*
X437896Y536956D01*
X441960Y541020D01*
X241300Y580136D02*
X235712Y574548D01*
X290576Y580136D02*
X241300Y580136D01*
X618744Y648208D02*
X618744Y618744D01*
X519684Y747268D02*
X618744Y648208D01*
X519684Y747268D02*
X441960Y747268D01*
X440944Y788924D02*
X585028Y788924D01*
X589280Y784672D01*
G54D14*
X290576Y580136D02*
X387096Y580136D01*
G54D15*
X-2540Y-40647D02*
X-2540Y63861D01*
X-2540Y-40647D02*
X69968Y-40647D01*
X722540Y-40647D02*
X650032Y-40647D01*
X722540Y-40647D02*
X722540Y63861D01*
X722540Y1004433D02*
X722540Y899925D01*
X722540Y1004433D02*
X650032Y1004433D01*
X-2540Y1004433D02*
X69968Y1004433D01*
X-2540Y1004433D02*
X-2540Y899925D01*
X-52540Y-40647D02*
X-152540Y-40647D01*
X-102540Y-90647D02*
X-102540Y9353D01*
X-140040Y-40647D02*
G75*
D01*
G02X-140040Y-40647I37500J0*
G01*
X772540Y-40647D02*
X872540Y-40647D01*
X822540Y-90647D02*
X822540Y9353D01*
X785040Y-40647D02*
G75*
D01*
G02X785040Y-40647I37500J0*
G01*
X810040Y-40647D02*
G75*
D01*
G02X810040Y-40647I12500J0*
G01*
X-52540Y1004433D02*
X-152540Y1004433D01*
X-102540Y954433D02*
X-102540Y1054433D01*
X-140040Y1004433D02*
G75*
D01*
G02X-140040Y1004433I37500J0*
G01*
X-127540Y1004433D02*
G75*
D01*
G02X-127540Y1004433I25000J0*
G01*
X-115040Y1004433D02*
G75*
D01*
G02X-115040Y1004433I12500J0*
G01*
G54D16*
X176645Y14732D03*
X250305Y14732D03*
X338836Y206248D03*
X545084Y265176D03*
X618744Y618744D03*
X235712Y574548D03*
X589280Y677672D03*
G54D17*
X176645Y244732D03*
X250305Y244732D03*
X338836Y99248D03*
X440436Y88900D03*
X441960Y128524D03*
X440436Y167640D03*
X545084Y372176D03*
X442976Y294640D03*
X441960Y334772D03*
X442976Y375920D03*
X618744Y308744D03*
X235712Y467548D03*
X441960Y499872D03*
X441960Y541020D03*
X441960Y581152D03*
X132588Y530860D03*
X132588Y570484D03*
X132588Y609600D03*
X589280Y784672D03*
X440944Y707644D03*
X441960Y747268D03*
X440944Y788924D03*
X131572Y663448D03*
X131572Y742188D03*
X132588Y703072D03*
G54D18*
X368300Y14732D03*
G54D19*
X363275Y9707D02*
X373325Y9707D01*
X373325Y19757D01*
X363275Y19757D01*
X363275Y9707D01*D02*
X355775Y930323D02*
X380825Y930323D01*
X380825Y955373D01*
X355775Y955373D01*
X355775Y930323D01*D02*
G54D20*
X393700Y14732D03*
X419100Y14732D03*
G54D21*
X368300Y942848D03*
G54D22*
X419100Y942848D03*
X469900Y942848D03*
X520700Y942848D03*
G54D23*
X290576Y580136D03*
X387096Y580136D03*

M02*
