G04 Generated by Ultiboard 14.0 *
%FSLAX34Y34*%
%MOMM*%

%ADD10C,0.0001*%
%ADD11C,0.2032*%
%ADD12C,0.1000*%
%ADD13C,0.1176*%
%ADD14C,0.1552*%
%ADD15C,0.2001*%
%ADD16C,0.1270*%


G04 ColorRGB FFFF00 for the following layer *
%LNSilkScreenTop*%
%LPD*%
G54D10*
G54D11*
X207784Y173852D02*
X197784Y173852D01*
X197784Y177834D01*
X199784Y179825D01*
X200784Y179825D01*
X202784Y177834D01*
X202784Y173852D01*
X202784Y174847D02*
X207784Y179825D01*
X203784Y188785D02*
X203784Y182812D01*
X197784Y187789D01*
X207784Y187789D01*
X207784Y186794D02*
X207784Y188785D01*
X237248Y173852D02*
X227248Y173852D01*
X227248Y177834D01*
X229248Y179825D01*
X230248Y179825D01*
X232248Y177834D01*
X232248Y173852D01*
X232248Y174847D02*
X237248Y179825D01*
X228248Y183807D02*
X227248Y184803D01*
X227248Y186794D01*
X229248Y188785D01*
X231248Y188785D01*
X232248Y187789D01*
X233248Y188785D01*
X235248Y188785D01*
X237248Y186794D01*
X237248Y184803D01*
X236248Y183807D01*
X232248Y184803D02*
X232248Y187789D01*
X266712Y173852D02*
X256712Y173852D01*
X256712Y177834D01*
X258712Y179825D01*
X259712Y179825D01*
X261712Y177834D01*
X261712Y173852D01*
X261712Y174847D02*
X266712Y179825D01*
X258712Y182812D02*
X256712Y184803D01*
X256712Y186794D01*
X258712Y188785D01*
X259712Y188785D01*
X266712Y182812D01*
X266712Y188785D01*
X265712Y188785D01*
X296176Y173852D02*
X286176Y173852D01*
X286176Y177834D01*
X288176Y179825D01*
X289176Y179825D01*
X291176Y177834D01*
X291176Y173852D01*
X291176Y174847D02*
X296176Y179825D01*
X288176Y183807D02*
X286176Y185798D01*
X296176Y185798D01*
X296176Y182812D02*
X296176Y188785D01*
X46199Y144274D02*
X47974Y143250D01*
X49832Y142385D01*
X51758Y141686D01*
X53738Y141157D01*
X55756Y140802D01*
X57798Y140625D01*
X59847Y140627D01*
X61888Y140807D01*
X63906Y141164D01*
X65885Y141696D01*
X67810Y142398D01*
X69667Y143265D01*
X71441Y144291D01*
X73119Y145467D01*
X74688Y146786D01*
X76136Y148236D01*
X77452Y149806D01*
X78626Y151486D01*
X79649Y153261D01*
X80514Y155119D01*
X81214Y157045D01*
X81743Y159025D01*
X82097Y161043D01*
X82274Y163085D01*
X82273Y165134D01*
X82093Y167175D01*
X81736Y169193D01*
X81204Y171172D01*
X80502Y173097D01*
X79635Y174954D01*
X78609Y176728D01*
X77432Y178405D01*
X76114Y179974D01*
X74664Y181422D01*
X73093Y182738D01*
X71414Y183913D01*
X69638Y184936D01*
X67781Y185801D01*
X65855Y186500D01*
X63875Y187029D01*
X61857Y187384D01*
X59815Y187561D01*
X57766Y187560D01*
X55725Y187380D01*
X53707Y187022D01*
X51728Y186491D01*
X49803Y185788D01*
X47946Y184921D01*
X46199Y183913D01*
X46228Y144543D02*
X46228Y183651D01*
X105127Y144274D02*
X106902Y143250D01*
X108760Y142385D01*
X110686Y141686D01*
X112666Y141157D01*
X114684Y140802D01*
X116726Y140625D01*
X118775Y140627D01*
X120816Y140807D01*
X122834Y141164D01*
X124813Y141696D01*
X126738Y142398D01*
X128595Y143265D01*
X130369Y144291D01*
X132047Y145467D01*
X133616Y146786D01*
X135064Y148236D01*
X136380Y149806D01*
X137554Y151486D01*
X138577Y153261D01*
X139442Y155119D01*
X140142Y157045D01*
X140671Y159025D01*
X141025Y161043D01*
X141202Y163085D01*
X141201Y165134D01*
X141021Y167175D01*
X140664Y169193D01*
X140132Y171172D01*
X139430Y173097D01*
X138563Y174954D01*
X137537Y176728D01*
X136360Y178405D01*
X135042Y179974D01*
X133592Y181422D01*
X132021Y182738D01*
X130342Y183913D01*
X128566Y184936D01*
X126709Y185801D01*
X124783Y186500D01*
X122803Y187029D01*
X120785Y187384D01*
X118743Y187561D01*
X116694Y187560D01*
X114653Y187380D01*
X112635Y187022D01*
X110656Y186491D01*
X108731Y185788D01*
X106874Y184921D01*
X105127Y183913D01*
X105156Y144543D02*
X105156Y183651D01*
X146812Y385556D02*
X146802Y284322D01*
X181102Y385556D02*
X181102Y284122D01*
X134852Y284222D02*
X134868Y385556D01*
X148082Y283988D02*
X181102Y283988D01*
X134868Y283988D02*
X148838Y283988D01*
X134868Y385556D02*
X148838Y385556D01*
X146812Y547608D02*
X146802Y446374D01*
X181102Y547608D02*
X181102Y446174D01*
X134852Y446274D02*
X134868Y547608D01*
X148082Y446040D02*
X181102Y446040D01*
X134868Y446040D02*
X148838Y446040D01*
X134868Y547608D02*
X148838Y547608D01*
X146812Y709660D02*
X146802Y608426D01*
X181102Y709660D02*
X181102Y608226D01*
X134852Y608326D02*
X134868Y709660D01*
X148082Y608092D02*
X181102Y608092D01*
X134868Y608092D02*
X148838Y608092D01*
X134868Y709660D02*
X148838Y709660D01*
X146812Y871712D02*
X146802Y770478D01*
X181102Y871712D02*
X181102Y770278D01*
X134852Y770378D02*
X134868Y871712D01*
X148082Y770144D02*
X181102Y770144D01*
X134868Y770144D02*
X148838Y770144D01*
X134868Y871712D02*
X148838Y871712D01*
X74563Y935536D02*
X77385Y934025D01*
X80208Y934025D01*
X83030Y935536D01*
X83030Y941584D01*
X88674Y940072D02*
X91496Y941584D01*
X91496Y934025D01*
X87263Y934025D02*
X95730Y934025D01*
X253492Y944880D02*
X75692Y944880D01*
X253492Y970280D02*
X204809Y970280D01*
X94742Y970280D02*
X75692Y970280D01*
X75692Y944880D01*
X196342Y970280D02*
X101092Y970280D01*
X98975Y970280D02*
X98975Y961813D01*
X96859Y968163D02*
X98975Y970280D01*
X200575Y961813D02*
X200759Y961821D01*
X200943Y961845D01*
X201123Y961885D01*
X201299Y961941D01*
X201470Y962012D01*
X201633Y962097D01*
X201789Y962196D01*
X201936Y962309D01*
X202072Y962433D01*
X202196Y962569D01*
X202309Y962716D01*
X202408Y962872D01*
X202493Y963035D01*
X202564Y963206D01*
X202620Y963382D01*
X202660Y963562D01*
X202684Y963746D01*
X202692Y963930D01*
X202684Y964114D01*
X202660Y964298D01*
X202620Y964478D01*
X202564Y964654D01*
X202493Y964825D01*
X202408Y964988D01*
X202309Y965144D01*
X202196Y965291D01*
X202072Y965427D01*
X201936Y965551D01*
X201789Y965664D01*
X201633Y965763D01*
X201470Y965848D01*
X201299Y965919D01*
X201123Y965975D01*
X200943Y966015D01*
X200759Y966039D01*
X200575Y966047D01*
X198459Y961813D02*
X200575Y961813D01*
X198459Y966047D02*
X200575Y966047D01*
X198459Y970280D02*
X202692Y970280D01*
X198459Y966047D02*
X198459Y970280D01*
X253492Y970280D02*
X253492Y944880D01*
X205345Y54048D02*
X202523Y55559D01*
X199700Y55559D01*
X196878Y54048D01*
X196878Y48000D01*
X192645Y49512D02*
X189823Y48000D01*
X187000Y48000D01*
X184178Y49512D01*
X184178Y50268D01*
X192645Y55559D01*
X184178Y55559D01*
X184178Y54804D01*
X204216Y16764D02*
X204216Y42164D01*
X128016Y16764D02*
X128016Y42164D01*
X128016Y16764D02*
X178816Y16764D01*
X185166Y16764D02*
X204216Y16764D01*
X180933Y16764D02*
X180933Y25231D01*
X183049Y18881D02*
X180933Y16764D01*
X128016Y42164D02*
X204216Y42164D01*
G54D12*
X163884Y147856D02*
X189384Y147856D01*
X189384Y217856D01*
X163884Y217856D01*
X163884Y147856D01*
X176784Y131856D02*
X176784Y147856D01*
X176784Y217856D02*
X176784Y234856D01*
X193348Y147856D02*
X218848Y147856D01*
X218848Y217856D01*
X193348Y217856D01*
X193348Y147856D01*
X206248Y131856D02*
X206248Y147856D01*
X206248Y217856D02*
X206248Y234856D01*
X222812Y147856D02*
X248312Y147856D01*
X248312Y217856D01*
X222812Y217856D01*
X222812Y147856D01*
X235712Y131856D02*
X235712Y147856D01*
X235712Y217856D02*
X235712Y234856D01*
X252276Y147856D02*
X277776Y147856D01*
X277776Y217856D01*
X252276Y217856D01*
X252276Y147856D01*
X265176Y131856D02*
X265176Y147856D01*
X265176Y217856D02*
X265176Y234856D01*
G54D13*
X56952Y128522D02*
X58457Y127010D01*
X59962Y127010D01*
X61467Y128522D01*
X61467Y133057D01*
X59962Y134569D01*
X58457Y134569D01*
X56952Y133057D01*
X56952Y128522D01*
X59962Y128522D02*
X61467Y127010D01*
X68241Y130033D02*
X63725Y130033D01*
X67488Y134569D01*
X67488Y127010D01*
X66735Y127010D02*
X68241Y127010D01*
X115880Y128522D02*
X117385Y127010D01*
X118890Y127010D01*
X120395Y128522D01*
X120395Y133057D01*
X118890Y134569D01*
X117385Y134569D01*
X115880Y133057D01*
X115880Y128522D01*
X118890Y128522D02*
X120395Y127010D01*
X123406Y133813D02*
X124158Y134569D01*
X125663Y134569D01*
X127169Y133057D01*
X127169Y131545D01*
X126416Y130789D01*
X127169Y130033D01*
X127169Y128522D01*
X125663Y127010D01*
X124158Y127010D01*
X123406Y127766D01*
X124158Y130789D02*
X126416Y130789D01*
G54D14*
X196183Y327765D02*
X198178Y329752D01*
X198178Y331739D01*
X196183Y333726D01*
X190196Y333726D01*
X188200Y331739D01*
X188200Y329752D01*
X190196Y327765D01*
X196183Y327765D01*
X196183Y331739D02*
X198178Y333726D01*
X190196Y337700D02*
X188200Y339686D01*
X198178Y339686D01*
X198178Y336706D02*
X198178Y342667D01*
X196183Y489817D02*
X198178Y491804D01*
X198178Y493791D01*
X196183Y495778D01*
X190196Y495778D01*
X188200Y493791D01*
X188200Y491804D01*
X190196Y489817D01*
X196183Y489817D01*
X196183Y493791D02*
X198178Y495778D01*
X190196Y498758D02*
X188200Y500745D01*
X188200Y502732D01*
X190196Y504719D01*
X191193Y504719D01*
X198178Y498758D01*
X198178Y504719D01*
X197181Y504719D01*
X196183Y651869D02*
X198178Y653856D01*
X198178Y655843D01*
X196183Y657830D01*
X190196Y657830D01*
X188200Y655843D01*
X188200Y653856D01*
X190196Y651869D01*
X196183Y651869D01*
X196183Y655843D02*
X198178Y657830D01*
X188200Y666771D02*
X188200Y660810D01*
X192191Y660810D01*
X192191Y664784D01*
X194187Y666771D01*
X196183Y666771D01*
X198178Y664784D01*
X198178Y660810D01*
X196183Y813921D02*
X198178Y815908D01*
X198178Y817895D01*
X196183Y819882D01*
X190196Y819882D01*
X188200Y817895D01*
X188200Y815908D01*
X190196Y813921D01*
X196183Y813921D01*
X196183Y817895D02*
X198178Y819882D01*
X188200Y827829D02*
X188200Y824849D01*
X190196Y822862D01*
X194187Y822862D01*
X196183Y822862D01*
X198178Y824849D01*
X198178Y826836D01*
X196183Y828823D01*
X194187Y828823D01*
X192191Y826836D01*
X192191Y824849D01*
X194187Y822862D01*
G54D15*
X181002Y385572D02*
X147152Y385572D01*
X181002Y547624D02*
X147152Y547624D01*
X181002Y709676D02*
X147152Y709676D01*
X181002Y871728D02*
X147152Y871728D01*
G54D16*
X-2540Y-2540D02*
X-2540Y97968D01*
X-2540Y-2540D02*
X27968Y-2540D01*
X302540Y-2540D02*
X272032Y-2540D01*
X302540Y-2540D02*
X302540Y97968D01*
X302540Y1002540D02*
X302540Y902032D01*
X302540Y1002540D02*
X272032Y1002540D01*
X-2540Y1002540D02*
X27968Y1002540D01*
X-2540Y1002540D02*
X-2540Y902032D01*
X-52540Y-2540D02*
X-152540Y-2540D01*
X-102540Y-52540D02*
X-102540Y47460D01*
X-140040Y-2540D02*
G75*
D01*
G02X-140040Y-2540I37500J0*
G01*
X352540Y-2540D02*
X452540Y-2540D01*
X402540Y-52540D02*
X402540Y47460D01*
X365040Y-2540D02*
G75*
D01*
G02X365040Y-2540I37500J0*
G01*
X390040Y-2540D02*
G75*
D01*
G02X390040Y-2540I12500J0*
G01*
X-52540Y1002540D02*
X-152540Y1002540D01*
X-102540Y952540D02*
X-102540Y1052540D01*
X-140040Y1002540D02*
G75*
D01*
G02X-140040Y1002540I37500J0*
G01*
X-127540Y1002540D02*
G75*
D01*
G02X-127540Y1002540I25000J0*
G01*
X-115040Y1002540D02*
G75*
D01*
G02X-115040Y1002540I12500J0*
G01*

M02*
