M48
METRIC,TZ
VER,1
FMAT,2
DETECT,ON
ATC,ON
T1C0.9000
T2C1.0000
T3C1.5000
%
T1
X199644Y29464
X225044
X250444
T2
X221996Y292100
X220980Y334772
X221996Y375920
X145796Y378460
X221996Y454660
X220980Y496824
X221996Y538480
X299212Y579120
X221996Y701040
X220980Y658876
X221996Y617220
X148336Y701040
X221996Y779780
X220980Y820928
X221996Y861060
X206248Y103124
Y233124
X265176Y103124
Y233124
X324104Y103124
Y233124
X383032Y103124
Y233124
X73660Y164084
Y127000
Y200660
X132588Y164084
X132080Y200660
Y127000
T3
X299720Y957580
X248920
X198120
X147320
M30
