M48
METRIC,TZ
VER,1
FMAT,2
DETECT,ON
ATC,ON
T1C1.0000
T2C6.0000
T3C1.5000
%
T1
X176645Y14732
Y244732
X250305Y14732
Y244732
X368300Y14732
X393700
X419100
X338836Y206248
Y99248
X440436Y88900
X441960Y128524
X440436Y167640
X545084Y265176
Y372176
X442976Y294640
X441960Y334772
X442976Y375920
X618744Y308744
Y618744
X235712Y467548
Y574548
X441960Y499872
Y541020
Y581152
X132588Y530860
Y570484
Y609600
X589280Y677672
Y784672
X440944Y707644
X441960Y747268
X440944Y788924
X131572Y663448
Y742188
X132588Y703072
X290576Y580136
X387096
T2
X50800Y10160
X673100Y7620
X675640Y960120
X43180
T3
X368300Y942848
X419100
X469900
X520700
M30
