M48
METRIC,TZ
VER,1
FMAT,2
DETECT,ON
ATC,ON
T1C0.6000
T2C0.9000
T3C1.0000
%
T1
X273812Y78740
X58928Y151384
Y164084
Y176784
X117856Y151384
Y164084
Y176784
X118364Y246380
X235204Y309880
X161544Y421640
Y589280
Y749300
T2
X176784Y247856
Y117856
X206248Y247856
Y117856
X235712Y247856
Y117856
X265176Y247856
Y117856
X166116Y29464
X191516
X140716
T3
X162052Y309372
Y334772
Y360172
X87884Y360680
X162052Y471424
Y496824
Y522224
X240284Y579120
X162052Y633476
Y658876
Y684276
X87884Y683260
X162052Y795528
Y820928
Y846328
X240792Y957580
X189992
X139192
X88392
M30
